<svg xmlns="http://www.w3.org/2000/svg" version="1.1" xmlns:xlink="http://www.w3.org/1999/xlink" xmlns:svgjs="http://svgjs.dev/svgjs" width="1500" height="1500" viewBox="0 0 1500 1500"><rect width="1500" height="1500" fill="#ffffff"></rect><g transform="matrix(0.6666666666666666,0,0,0.6666666666666666,249.39393939393938,665.836612487747)"><svg viewBox="0 0 396 67" data-background-color="#ffffff" preserveAspectRatio="xMidYMid meet" height="253" width="1500" xmlns="http://www.w3.org/2000/svg" xmlns:xlink="http://www.w3.org/1999/xlink"><g id="tight-bounds" transform="matrix(1,0,0,1,0.2400000000000091,-0.06750812260304428)"><svg viewBox="0 0 395.52 67.13501624520606" height="67.13501624520606" width="395.52"><g><svg viewBox="0 0 522.4601437335239 88.6816601866475" height="67.13501624520606" width="395.52"><g transform="matrix(1,0,0,1,126.94014373352391,12.256293122756638)"><svg viewBox="0 0 395.52 64.16907394113423" height="64.16907394113423" width="395.52"><g id="textblocktransform"><svg viewBox="0 0 395.52 64.16907394113423" height="64.16907394113423" width="395.52" id="textblock"><g><svg viewBox="0 0 395.52 64.16907394113423" height="64.16907394113423" width="395.52"><g transform="matrix(1,0,0,1,0,0)"><svg width="395.52" viewBox="3.85 -35.35 278.57 45.2" height="64.16907394113423" data-palette-color="#32cd32"><path d="M20.6-18.2L20.6-14.65 7.9-14.65 7.9 0 3.85 0 3.85-33.7 22.35-33.7 22.35-30.15 7.9-30.15 7.9-18.2 20.6-18.2ZM32-13.85L32 0 28.05 0 28.1-25.35 32-25.35 32-20.9Q34-25.6 38.9-25.6L38.9-25.6Q39.8-25.6 40.3-25.5L40.3-25.5 40.3-21.6Q39.25-21.95 38.15-21.95L38.15-21.95Q35.5-21.95 33.75-19.5 32-17.05 32-13.85L32-13.85ZM62.9-5L62.9-1.3Q59.95 0.25 55.7 0.25L55.7 0.25Q49.95 0.25 46.42-3.28 42.9-6.8 42.9-12.6L42.9-12.6Q42.9-18.65 46.05-22.15 49.2-25.65 54.15-25.65L54.15-25.65Q58.9-25.65 61.7-22.6 64.5-19.55 64.5-13.95L64.5-13.95Q64.5-12.35 64.25-11L64.25-11 46.95-11Q47.4-7.25 49.8-5.25 52.2-3.25 56.1-3.25L56.1-3.25Q60.35-3.25 62.9-5L62.9-5ZM54.15-22.2L54.15-22.2Q51.3-22.2 49.3-20.15 47.3-18.1 46.95-14.3L46.95-14.3 60.55-14.3 60.55-15.3Q60.55-18.45 58.85-20.33 57.15-22.2 54.15-22.2ZM85.74-6.75L85.74-6.75Q85.74-3.5 83.47-1.6 81.19 0.3 77.24 0.3L77.24 0.3Q72.64 0.3 69.79-1.25L69.79-1.25 69.79-5.1Q73.14-3.1 76.99-3.1L76.99-3.1Q79.29-3.1 80.49-4 81.69-4.9 81.69-6.45L81.69-6.45Q81.69-8.25 80.37-9.25 79.04-10.25 75.94-11.5L75.94-11.5Q73.09-12.6 71.37-14.25 69.64-15.9 69.64-18.7L69.64-18.7Q69.64-21.85 72.02-23.73 74.39-25.6 77.94-25.6L77.94-25.6Q81.89-25.6 84.29-24.5L84.29-24.5 84.29-20.75Q81.99-22.15 77.99-22.15L77.99-22.15Q75.99-22.15 74.82-21.23 73.64-20.3 73.64-18.85L73.64-18.85Q73.64-17.95 73.99-17.28 74.34-16.6 75.37-15.95 76.39-15.3 76.87-15.08 77.34-14.85 78.94-14.15L78.94-14.15Q82.14-12.85 83.94-11.2 85.74-9.55 85.74-6.75ZM111.09-17.35L111.09 0 107.14 0 107.14-16.4Q107.14-19.15 105.72-20.65 104.29-22.15 101.99-22.15L101.99-22.15Q99.19-22.15 97.09-20 94.99-17.85 94.99-13.85L94.99-13.85 94.99 0 91.09 0 91.09-35.35 94.99-35.35 94.99-20.95Q97.24-25.7 102.99-25.7L102.99-25.7Q106.64-25.7 108.86-23.45 111.09-21.2 111.09-17.35L111.09-17.35ZM121.99-3.85L121.99 9.85 118.09 9.85 118.09-25.35 121.99-25.35 121.99-21.5Q124.64-25.75 129.84-25.75L129.84-25.75Q134.89-25.75 137.76-22.08 140.64-18.4 140.64-12.9L140.64-12.9Q140.64-7.05 137.61-3.33 134.59 0.4 129.74 0.4L129.74 0.4Q124.74 0.4 121.99-3.85L121.99-3.85ZM121.99-12.65L121.99-12.65Q121.99-7.8 124.24-5.5 126.49-3.2 129.24-3.2L129.24-3.2Q132.44-3.2 134.49-5.73 136.54-8.25 136.54-12.9L136.54-12.9Q136.54-17.05 134.54-19.6 132.54-22.15 129.49-22.15 126.44-22.15 124.21-19.93 121.99-17.7 121.99-12.65ZM150.34-13.85L150.34 0 146.38 0 146.44-25.35 150.34-25.35 150.34-20.9Q152.34-25.6 157.23-25.6L157.23-25.6Q158.13-25.6 158.63-25.5L158.63-25.5 158.63-21.6Q157.59-21.95 156.48-21.95L156.48-21.95Q153.84-21.95 152.09-19.5 150.34-17.05 150.34-13.85L150.34-13.85ZM185.03-12.6L185.03-12.6Q185.03-6.95 181.83-3.25 178.63 0.45 173.03 0.45L173.03 0.45Q167.58 0.45 164.41-3.23 161.23-6.9 161.23-12.5L161.23-12.5Q161.23-18.15 164.51-21.93 167.78-25.7 173.03-25.7L173.03-25.7Q178.78-25.7 181.91-22 185.03-18.3 185.03-12.6ZM165.33-12.55L165.33-12.55Q165.33-8.6 167.43-5.83 169.53-3.05 173.03-3.05L173.03-3.05Q176.83-3.05 178.88-5.78 180.93-8.5 180.93-12.55L180.93-12.55Q180.93-16.75 178.98-19.48 177.03-22.2 173.03-22.2L173.03-22.2Q169.43-22.2 167.38-19.4 165.33-16.6 165.33-12.55ZM193.43-12.4L193.43-12.4Q193.43-8.3 195.43-5.75 197.43-3.2 200.48-3.2L200.48-3.2Q203.58-3.2 205.75-5.5 207.93-7.8 207.93-12.85L207.93-12.85Q207.93-17.65 205.68-19.9 203.43-22.15 200.73-22.15L200.73-22.15Q197.58-22.15 195.5-19.63 193.43-17.1 193.43-12.4ZM211.88-35.35L211.88 0 207.93 0 207.93-3.75Q205.23 0.4 200.13 0.4L200.13 0.4Q195.08 0.4 192.21-3.35 189.33-7.1 189.33-12.45L189.33-12.45Q189.33-18.4 192.38-22.08 195.43-25.75 200.23-25.75L200.23-25.75Q205.18-25.75 207.93-21.5L207.93-21.5 207.93-35.35 211.88-35.35ZM238.88-25.35L238.88 0 234.93 0 234.93-4.4Q232.93 0.3 226.98 0.3L226.98 0.3Q223.23 0.3 221.05-1.93 218.88-4.15 218.88-7.9L218.88-7.9 218.88-25.35 222.83-25.35 222.83-8.9Q222.83-6.15 224.23-4.7 225.63-3.25 228.03-3.25L228.03-3.25Q231.18-3.25 233.05-5.45 234.93-7.65 234.93-11.4L234.93-11.4 234.93-25.35 238.88-25.35ZM263.63-4.65L263.63-0.9Q261.23 0.55 257.73 0.55L257.73 0.55Q251.72 0.55 248.2-3.28 244.68-7.1 244.68-12.6L244.68-12.6Q244.68-18 248.2-21.9 251.72-25.8 257.82-25.8L257.82-25.8Q261.07-25.8 263.63-24.4L263.63-24.4 263.63-20.65Q261.32-22.2 258.23-22.2L258.23-22.2Q253.93-22.2 251.35-19.43 248.78-16.65 248.78-12.55L248.78-12.55Q248.83-8.45 251.28-5.73 253.72-3 258.23-3L258.23-3Q261.13-3 263.63-4.65L263.63-4.65ZM282.42-4.4L282.42-0.65Q280.77 0.25 278.72 0.25L278.72 0.25Q271.22 0.25 271.22-7.4L271.22-7.4 271.22-22.15 267.17-22.15 267.17-25.35 271.22-25.35 271.22-31.65 275.17-31.65 275.17-25.35 282.17-25.35 282.17-22.15 275.17-22.15 275.17-7.3Q275.17-3.25 278.97-3.25L278.97-3.25Q280.92-3.25 282.42-4.4L282.42-4.4Z" opacity="1" transform="matrix(1,0,0,1,0,0)" fill="#32cd32" class="wordmark-text-0" data-fill-palette-color="primary" id="text-0"></path></svg></g></svg></g></svg></g></svg></g><g><svg viewBox="0 0 111.7913654337967 88.6816601866475" height="88.6816601866475" width="111.7913654337967"><g><svg xmlns="http://www.w3.org/2000/svg" xmlns:xlink="http://www.w3.org/1999/xlink" version="1.1" x="0" y="0" viewBox="7.2219999999999995 16.066000000000003 85.55509859262561 67.869" enable-background="new 0 0 100 100" xml:space="preserve" height="88.6816601866475" width="111.7913654337967" class="icon-icon-0" data-fill-palette-color="accent" id="icon-0"><path d="M21.594 83.935c-0.324 0-0.655-0.135-0.885-0.363L7.882 70.743c-0.426-0.424-0.66-0.99-0.66-1.591 0-0.601 0.235-1.165 0.661-1.59 0.27-0.273 2.701-2.738 5.096-5.664 3.412-4.171 6.452-6.535 9.566-7.44 11.271-3.28 21.64 1.577 24.383 3.536 0.998 0.713 2.311 1.588 3.366 2.291 0.809 0.539 1.331 0.89 1.679 1.131 0.578-0.027 1.536-0.102 2.338-0.165 2.537-0.197 6.009-0.469 9.678-0.469h0.002c3.512 0 6.76 1.191 8.689 2.468l0.711-0.534c0.722-0.652 7.884-7.009 11.94-8.968 2.151-1.037 4.901 0.153 5.443 0.657 1.813 1.686 1.898 2.117 1.96 2.432 0.133 0.672-0.045 1.36-0.49 1.885-0.009 0.01-0.017 0.02-0.027 0.03L78.692 73.696c-0.203 0.245-0.507 0.466-0.847 0.602l-20.903 8.025c-0.422 0.169-0.917 0.204-1.378 0.086-8.271-2.094-22.612-5.204-25.876-4.629-2.739 0.483-5.206 3.464-6.391 4.896-0.719 0.867-1.016 1.227-1.646 1.257C21.632 83.934 21.613 83.935 21.594 83.935zM9.734 69.152l11.815 11.816c1.416-1.708 4.205-4.965 7.715-5.585 4.819-0.844 25.594 4.34 26.843 4.653l20.847-8.003 13.284-14.719c-0.209-0.237-0.567-0.607-1.051-1.06-0.399-0.217-1.886-0.75-2.795-0.313-3.051 1.473-8.637 6.135-11.457 8.657l-0.507 0.382c0.522 0.842 0.665 1.648 0.674 2.25 0.02 1.267-0.521 2.384-1.066 2.929l-0.221 0.221c-0.169 0.17-0.386 0.286-0.621 0.333l-0.306 0.061c-0.158 0.031-0.158 0.032-1.32 0.02-0.712-0.006-1.695-0.016-2.67-0.016-0.749 0-2.092 0.471-2.98 0.783-0.423 0.148-0.786 0.274-1.042 0.343-0.036 0.01-0.073 0.018-0.109 0.025-4.247 0.747-12.669 2.267-14.153 2.677-0.646 0.175-1.318-0.201-1.497-0.85-0.179-0.648 0.202-1.318 0.85-1.497 1.916-0.529 13.278-2.534 14.319-2.718 0.211-0.061 0.497-0.163 0.826-0.278 1.107-0.388 2.624-0.92 3.787-0.92 0.984 0 1.974 0.01 2.692 0.016 0.326 0.003 0.593 0.006 0.773 0.007 0.188-0.297 0.788-1.47-0.49-2.69-1.139-0.959-4.26-2.459-7.879-2.459-0.001 0-0.001 0-0.002 0-3.573 0-6.992 0.267-9.488 0.461-1.39 0.109-2.444 0.202-2.912 0.182-0.257-0.002-0.508-0.086-0.715-0.239-0.297-0.22-0.842-0.585-1.93-1.31-1.076-0.717-2.415-1.61-3.43-2.336-2.494-1.781-11.944-6.186-22.288-3.179-2.619 0.762-5.277 2.873-8.363 6.645C12.61 66.192 10.326 68.55 9.734 69.152zM67.552 51.193H37.641c-0.673 0-1.217-0.545-1.217-1.217V25.108h-3.303c-0.673 0-1.217-0.545-1.217-1.217v-6.608c0-0.672 0.545-1.217 1.217-1.217h38.604c0.673 0 1.217 0.545 1.217 1.217v6.608c0 0.672-0.545 1.217-1.217 1.217H68.77v24.867C68.77 50.647 68.225 51.193 67.552 51.193zM38.859 48.758h27.476V26.963L53.45 37.387c-0.447 0.361-1.087 0.359-1.534-0.002L38.859 26.777V48.758zM40.665 25.108l12.021 9.765 12.071-9.765H40.665zM37.247 22.673h33.261V18.5H34.339v4.173h2.889C37.234 22.673 37.24 22.673 37.247 22.673z" fill="#32cd32" data-fill-palette-color="accent"></path></svg></g></svg></g></svg></g><defs></defs></svg><rect width="395.52" height="67.13501624520606" fill="none" stroke="none" visibility="hidden"></rect></g></svg></g></svg>